<svg width="24" height="25" viewBox="0 0 24 25" fill="none" xmlns="http://www.w3.org/2000/svg">
<g id="Checked Checkbox">
<path id="Vector_2" d="M17.2345 8.836C17.0397 8.84168 16.8548 8.92294 16.7189 9.06257L10.2491 15.5323L7.77941 13.0626C7.7103 12.9906 7.62753 12.9331 7.53593 12.8935C7.44433 12.8539 7.34576 12.833 7.24598 12.832C7.1462 12.831 7.04722 12.8499 6.95484 12.8876C6.86246 12.9253 6.77853 12.9811 6.70797 13.0517C6.63741 13.1222 6.58164 13.2062 6.54393 13.2985C6.50621 13.3909 6.48731 13.4899 6.48832 13.5897C6.48933 13.6895 6.51025 13.788 6.54983 13.8796C6.58942 13.9712 6.64689 14.054 6.71887 14.1231L9.71887 17.1231C9.85952 17.2637 10.0503 17.3427 10.2491 17.3427C10.448 17.3427 10.6388 17.2637 10.7794 17.1231L17.7794 10.1231C17.8876 10.0177 17.9615 9.88215 17.9913 9.7341C18.0212 9.58604 18.0057 9.43242 17.9468 9.29334C17.8879 9.15425 17.7884 9.03619 17.6613 8.95459C17.5342 8.87299 17.3855 8.83166 17.2345 8.836Z" fill="#000"/>
</g>
</svg>
